<svg width="1200" height="800" viewBox="0 0 1200 800" fill="none" xmlns="http://www.w3.org/2000/svg">
  <defs>
    <linearGradient id="bg" x1="0" y1="0" x2="1200" y2="800" gradientUnits="userSpaceOnUse">
      <stop stop-color="#F6FAF4"/>
      <stop offset="1" stop-color="#E8F2E2"/>
    </linearGradient>
    <linearGradient id="card" x1="300" y1="150" x2="900" y2="650" gradientUnits="userSpaceOnUse">
      <stop stop-color="#0B5D1E"/>
      <stop offset="1" stop-color="#1E7A32"/>
    </linearGradient>
    <linearGradient id="gold" x1="430" y1="200" x2="770" y2="600" gradientUnits="userSpaceOnUse">
      <stop stop-color="#F7E7AF"/>
      <stop offset="1" stop-color="#C8A951"/>
    </linearGradient>
  </defs>
  <rect width="1200" height="800" rx="44" fill="url(#bg)"/>
  <circle cx="980" cy="150" r="110" fill="#C8A951" fill-opacity="0.14"/>
  <circle cx="190" cy="660" r="150" fill="#0B5D1E" fill-opacity="0.08"/>
  <rect x="210" y="140" width="780" height="520" rx="36" fill="#FFFFFF" fill-opacity="0.72" stroke="#D9E7D5" stroke-width="6"/>
  <path d="M300 270C375 220 469 200 600 200C731 200 825 220 900 270V545C840 505 756 482 600 482C444 482 360 505 300 545V270Z" fill="url(#card)"/>
  <path d="M350 290C409 260 485 247 600 247C715 247 791 260 850 290V510C793 475 720 455 600 455C480 455 407 475 350 510V290Z" fill="#145427"/>
  <circle cx="600" cy="370" r="86" fill="url(#gold)" fill-opacity="0.18"/>
  <circle cx="600" cy="370" r="58" fill="url(#gold)" fill-opacity="0.28"/>
  <path d="M600 325L610.8 356H643.6L617 375.2L627.8 406L600 386.8L572.2 406L583 375.2L556.4 356H589.2L600 325Z" fill="#C8A951"/>
  <path d="M392 352H520" stroke="#EADFA4" stroke-width="9" stroke-linecap="round"/>
  <path d="M392 388H510" stroke="#EADFA4" stroke-width="9" stroke-linecap="round"/>
  <path d="M680 352H808" stroke="#EADFA4" stroke-width="9" stroke-linecap="round"/>
  <path d="M690 388H808" stroke="#EADFA4" stroke-width="9" stroke-linecap="round"/>
  <path d="M392 424H490" stroke="#EADFA4" stroke-width="9" stroke-linecap="round"/>
  <path d="M710 424H808" stroke="#EADFA4" stroke-width="9" stroke-linecap="round"/>
  <path d="M980 280C1030 318 1058 372 1058 432C1058 516 992 584 908 584H862" stroke="#0B5D1E" stroke-width="18" stroke-linecap="round" stroke-linejoin="round" opacity="0.8"/>
  <path d="M1042 570C1063 570 1080 587 1080 608C1080 629 1063 646 1042 646C1021 646 1004 629 1004 608C1004 587 1021 570 1042 570Z" fill="#C8A951" fill-opacity="0.92"/>
  <text x="600" y="700" text-anchor="middle" font-family="Georgia, serif" font-size="40" fill="#274331" font-weight="700">Quran Tilawah Circle</text>
</svg>